# xmcd
#
# Track frame offsets: 
#        150
#        14011
#        24329
#        34841
#        51600
#        82028
#        96642
#        110654
#        124895
#        141237
#        155597
#
# Disc length: 2254 seconds
#
# Revision: 0
# Processed by: cddbd v1.5.2PL0 Copyright (c) Steve Scherf et al.
# Submitted via: ExactAudioCopy v1.1
#
DISCID=a208cc0b
DTITLE=Canned Heat - Canned Heat (1st)
DYEAR=1967
DGENRE=Blues
TTITLE0=Rollin' And Tumblin' (stereo)
TTITLE1=Bullfrog Blues (stereo)
TTITLE2=Evil (stereo)
TTITLE3=Goin' Down Slow (stereo)
TTITLE4=Catfish Blues (stereo)
TTITLE5=Dust My Broom (stereo)
TTITLE6=Help Me (stereo)
TTITLE7=Big Road Blues (stereo)
TTITLE8=The Story Of My Life (stereo)
TTITLE9=The Road Song (stereo)
TTITLE10=Rich Woman (stereo)
EXTD=
EXTT0=
EXTT1=
EXTT2=
EXTT3=
EXTT4=
EXTT5=
EXTT6=
EXTT7=
EXTT8=
EXTT9=
EXTT10=
PLAYORDER=
